<?xml version="1.0" encoding="UTF-8"?><svg id="Layer_1" xmlns="http://www.w3.org/2000/svg" viewBox="0 0 1000 854.25"><defs><style>.cls-1{fill:#e92729;}</style></defs><path class="cls-1" d="M0,162.3V693.17H122c81.35,0,148.48-25.22,201.39-75.68,52.86-50.42,79.29-113.89,79.29-190.37s-26.43-139.72-79.29-189.77c-52.91-50.03-120.04-75.05-201.39-75.05H0Z"/><path class="cls-1" d="M598.76,424.68c0,28.93-2.63,56.78-7.63,83.6h390.73v-162.3h-389.75c4.33,25.3,6.64,51.51,6.64,78.7Zm-138.9,314.14c-65.48,59.61-143.79,98.15-233.59,115.43H1000v-162.32H504.69c-13.55,16.31-28.44,31.97-44.82,46.88ZM233.18,0c88.92,17.05,165.95,54.79,229.73,113.01,17.11,15.62,32.61,32.06,46.52,49.29h490.57V0H233.18Z"/></svg>